Coordinates
version=1
nRows=4
nColumns=107
inDegrees=yes

Units are S.I. units (second, meters, Newtons, ...)
If the header above contains a line with 'inDegrees', this indicates whether rotational values are in degrees (yes) or radians (no).

endheader
time	sternoclavicular_r2	sternoclavicular_r3	unrotscap_r3	unrotscap_r2	acromioclavicular_r2	acromioclavicular_r3	acromioclavicular_r1	unrothum_r1	unrothum_r3	unrothum_r2	elv_angle	shoulder_elv	shoulder1_r2	shoulder_rot	elbow_flexion	pro_sup	deviation	flexion	proximal_distal_r1	proximal_distal_r3	cmc_flexion	cmc_abduction	mp_flexion	ip_flexion	mcp2_flexion	mcp2_abduction	pm2_flexion	md2_flexion	mcp3_flexion	mcp3_abduction	pm3_flexion	md3_flexion	mcp4_flexion	mcp4_abduction	pm4_flexion	md4_flexion	mcp5_flexion	mcp5_abduction	pm5_flexion	md5_flexion	bicpt_tx	bicpt_ty	bicpt_tz	bicpt2_tx	bicpt2_ty	bicpt2_tz	ptpt_tx	ptpt_ty	ptpt_tz	FCUpt_tx	FCUpt_ty	FCUpt_tz	EDCpt_tx	EDCpt_ty	EDCpt_tz	APLpt_tx	APLpt_ty	APLpt_tz	FPLpt_tx	FPLpt_ty	FPLpt_tz	FPLpt2_tx	FPLpt2_ty	FPLpt2_tz	PEC1pt2_tx	PEC1pt2_ty	PEC1pt2_tz	PEC1pt3_tx	PEC1pt3_ty	PEC1pt3_tz	PEC2pt2_tx	PEC2pt2_ty	PEC2pt2_tz	PEC2pt3_tx	PEC2pt3_ty	PEC2pt3_tz	PEC3pt2_tx	PEC3pt2_ty	PEC3pt2_tz	PEC3pt3_tx	PEC3pt3_ty	PEC3pt3_tz	DELT2pt2a_tx	DELT2pt2a_ty	DELT2pt2a_tz	DELT2pt2_tx	DELT2pt2_ty	DELT2pt2_tz	LAT1pt2_tx	LAT1pt2_ty	LAT1pt2_tz	LAT1pt3_tx	LAT1pt3_ty	LAT1pt3_tz	LAT2pt2_tx	LAT2pt2_ty	LAT2pt2_tz	LAT2pt3_tx	LAT2pt3_ty	LAT2pt3_tz	LAT3pt2_tx	LAT3pt2_ty	LAT3pt2_tz	LAT3pt3_tx	LAT3pt3_ty	LAT3pt3_tz
      0.93333333	     -0.32361769	      0.13706918	     -0.13706918	      0.32361769	     -0.06552600	      0.52955807	      0.23803271	     -0.23803271	     -0.52955807	      0.06552600	     98.33281479	     76.61936385	     -1.71623138	    -21.81190765	     30.92396457	     44.56321360	      0.26900671	      0.11355432	      0.30584914	      0.05677716	     22.45777435	      2.16611855	    -15.93306769	     10.03503353	     16.80262717	     12.04882559	     11.76815027	    -21.39022994	      1.28846877	      2.86915859	      7.33434313	     10.74859632	     -3.17715818	     -4.73525550	     -8.05428966	     18.99599305	    -15.54221888	    -14.43157936	     -6.41994267	      5.04159454	      0.00092287	     -0.03114436	     -0.00487090	      0.01655916	     -0.01860065	     -0.00696833	      0.00425728	     -0.06702913	     -0.00363981	      0.00824286	     -0.18339719	     -0.00041099	     -0.00534757	      0.00156908	      0.00010803	     -0.00012697	     -0.00005079	     -0.00025395	     -0.00016252	     -0.00048757	     -0.00027426	      0.00000590	     -0.00028125	     -0.00033750	      0.00251141	      0.00881123	      0.00612955	     -0.00821531	      0.01983592	     -0.01881433	      0.00251141	      0.00881123	      0.00612955	      0.00055336	      0.01838866	     -0.00966256	      0.00396503	      0.00489982	      0.01600926	      0.00000000	      0.00785168	      0.00000000	     -0.00719371	     -0.03324432	     -0.00647447	      0.01479990	     -0.00048823	     -0.00395271	     -0.00089389	      0.01498335	     -0.00612955	      0.00246885	      0.02162371	     -0.01787787	     -0.00600186	      0.01298274	     -0.00549106	     -0.01251451	      0.02741273	     -0.03069034	     -0.02349662	      0.01451513	     -0.00736398	     -0.01557928	      0.03166936	     -0.03835228
      0.96666667	     -0.31259325	      0.13239975	     -0.13239975	      0.31259325	     -0.06329377	      0.51151802	      0.22992383	     -0.22992383	     -0.51151802	      0.06329377	    100.90775889	     74.00923007	     -1.76117263	    -35.25453218	     33.64271330	     77.77894118	      0.28013121	      0.35988382	      0.31594698	      0.17994191	     30.75557798	    -10.96061087	    -15.56783123	      7.51732334	      6.94191082	     13.21986849	     15.71624518	    -13.42355576	      3.16407229	      3.67826930	      8.17430478	     11.38916694	      8.54385369	     -4.34010860	    -11.87875865	     17.74931222	      7.67696331	    -14.40717380	    -12.64338924	      5.06875471	      0.00101280	     -0.03145597	     -0.00492110	      0.01501249	     -0.01933921	     -0.00243656	      0.00180301	     -0.06861610	     -0.00631551	      0.01180401	     -0.18250655	     -0.00011722	     -0.00933345	      0.00313729	     -0.00051154	     -0.00047662	     -0.00019065	     -0.00095324	     -0.00061007	     -0.00183022	     -0.00102950	     -0.00000952	     -0.00024339	     -0.00029206	      0.00242586	      0.00851107	      0.00592074	     -0.00793544	      0.01916018	     -0.01817339	      0.00242586	      0.00851107	      0.00592074	      0.00053451	      0.01776223	     -0.00933339	      0.00386540	      0.00473290	      0.01576235	      0.00000000	      0.00732242	      0.00000000	     -0.00694865	     -0.03211181	     -0.00603498	      0.02102269	     -0.00094012	     -0.01021641	     -0.00086344	      0.01447293	     -0.00592074	      0.00238474	      0.02088707	     -0.01726883	     -0.00579739	      0.01254046	     -0.00530400	     -0.01208818	      0.02647888	     -0.02964483	     -0.02269618	      0.01402065	     -0.00711312	     -0.01504856	      0.03059051	     -0.03704576
      1.00000000	     -0.31368754	      0.13286324	     -0.13286324	      0.31368754	     -0.06351535	      0.51330869	      0.23072872	     -0.23072872	     -0.51330869	      0.06351535	    100.48672311	     74.26831457	     -1.75382417	    -33.61554059	     33.71571881	     79.80666621	      0.29504238	      0.33081307	      0.32916301	      0.16540653	     27.94384117	    -11.10883626	    -16.43271976	      7.22534960	      9.38775928	     12.75509131	     19.23292308	    -12.89229857	      8.03783625	      4.10393858	      9.15811250	     11.80121771	     13.84406490	     -4.24200143	    -10.35875006	     18.13532420	     12.81645291	    -14.33959102	     -9.79860215	      5.04255862	      0.00101521	     -0.03146434	     -0.00492244	      0.01483622	     -0.01935904	     -0.00210975	      0.00165319	     -0.06871298	     -0.00647886	      0.01203245	     -0.18244202	     -0.00007234	     -0.00957678	      0.00324407	     -0.00056875	     -0.00043011	     -0.00017204	     -0.00086022	     -0.00055054	     -0.00165163	     -0.00092904	     -0.00000539	     -0.00026479	     -0.00031775	      0.00243435	      0.00854086	      0.00594147	     -0.00796322	      0.01922726	     -0.01823701	      0.00243435	      0.00854086	      0.00594147	      0.00053638	      0.01782441	     -0.00936607	      0.00387540	      0.00474947	      0.01578760	      0.00000000	      0.00737410	      0.00000000	     -0.00697298	     -0.03222422	     -0.00607792	      0.02039337	     -0.00088228	     -0.00933589	     -0.00086646	      0.01452359	     -0.00594147	      0.00239309	      0.02096019	     -0.01732929	     -0.00581769	      0.01258436	     -0.00532257	     -0.01213050	      0.02657157	     -0.02974861	     -0.02277564	      0.01406973	     -0.00713802	     -0.01510124	      0.03069760	     -0.03717545
      1.03333333	     -0.31884831	      0.13504910	     -0.13504910	      0.31884831	     -0.06456030	      0.52175361	      0.23452466	     -0.23452466	     -0.52175361	      0.06456030	     99.12858479	     75.49017191	     -1.73012019	    -27.66838648	     33.24791887	     77.86571433	      0.33735993	      0.28824188	      0.36468959	      0.14412094	     26.05444594	    -11.15670540	    -18.89962761	      6.46074071	     12.57922366	     12.04785196	     24.17030281	    -13.95320814	     14.82225467	      3.92338571	      8.82000433	     11.67057852	     21.84693645	     -4.70389460	    -11.49908002	     17.11769080	     21.02837488	    -14.29439782	    -10.99951545	      5.03579712	      0.00099974	     -0.03141072	     -0.00491381	      0.01500505	     -0.01923196	     -0.00242264	      0.00179660	     -0.06862024	     -0.00632250	      0.01181378	     -0.18250380	     -0.00011533	     -0.00934386	      0.00314184	     -0.00051396	     -0.00036449	     -0.00014580	     -0.00072898	     -0.00046654	     -0.00139963	     -0.00078729	     -0.00000190	     -0.00027423	     -0.00032908	      0.00247440	      0.00868138	      0.00603922	     -0.00809423	      0.01954358	     -0.01853705	      0.00247440	      0.00868138	      0.00603922	      0.00054521	      0.01811766	     -0.00952016	      0.00392224	      0.00482760	      0.01590446	      0.00000000	      0.00762038	      0.00000000	     -0.00708769	     -0.03275437	     -0.00628245	      0.01780810	     -0.00067831	     -0.00639729	     -0.00088072	      0.01476253	     -0.00603922	      0.00243246	      0.02130502	     -0.01761439	     -0.00591340	      0.01279140	     -0.00541013	     -0.01233007	      0.02700873	     -0.03023803	     -0.02315034	      0.01430121	     -0.00725545	     -0.01534968	      0.03120263	     -0.03778706
